<svg width="30" height="30" viewBox="0 0 30 30" fill="none" xmlns="http://www.w3.org/2000/svg">
<path d="M11.4875 17.4625V8.4625L18.4812 4.425C22.3562 2.1875 29.2937 7.70625 26.3812 12.7562" stroke="#F8F8F8" stroke-linejoin="round"/>
<path d="M11.4875 13.0875L19.2812 8.5875L26.275 12.625C30.15 14.8625 28.8375 23.6313 23.0062 23.6313" stroke="#F8F8F8" stroke-linejoin="round"/>
<path d="M15.275 10.9L23.0688 15.4V23.4813C23.0688 27.9563 14.8187 31.2063 11.9062 26.1563" stroke="#F8F8F8" stroke-linejoin="round"/>
<path d="M19.0625 13.25V22.0875L12.0688 26.125C8.19375 28.3625 1.25625 22.8437 4.16875 17.7937" stroke="#F8F8F8" stroke-linejoin="round"/>
<path d="M19.0625 17.4625L11.2687 21.9625L4.27499 17.925C0.393742 15.6812 1.70624 6.91875 7.53749 6.91875" stroke="#F8F8F8" stroke-linejoin="round"/>
<path d="M15.275 19.65L7.48126 15.15V7.06875C7.48126 2.59375 15.7313 -0.656253 18.6438 4.39375" stroke="#F8F8F8" stroke-linejoin="round"/>
</svg>
